<!--
*************************************************************
*   PROJECT : YERAYLOIS GITHUB PROFILE                      *
*   FILE    : assets/footer/footer-dark.svg                 *
*   PURPOSE : ANIMATED FOOTER (DARK)                        *
*   AUTHOR  : Yeray Lois Sanchez                            *
*   EMAIL   : yerayloissanchez@gmail.com                    *
*************************************************************
-->
<svg xmlns="http://www.w3.org/2000/svg" width="840" height="100" viewBox="0 0 840 100" role="img" aria-label="Footer">
  <rect width="840" height="100" fill="#0d1117"/>
  <line x1="40" y1="0" x2="800" y2="0" stroke="transparent" stroke-width="1"/>
  <line x1="0" y1="38" x2="336" y2="38" stroke="transparent" stroke-width="1"/>
  <line x1="504" y1="38" x2="840" y2="38" stroke="transparent" stroke-width="1"/>
  <path d="M0,38 L336,38 L336.0,38.0 L340.2,39.9 L344.4,41.7 L348.6,43.4 L352.8,45.1 L357.0,46.5 L361.2,47.7 L365.4,48.7 L369.6,49.4 L373.8,49.9 L378.0,50.0 L382.2,49.9 L386.4,49.4 L390.6,48.7 L394.8,47.7 L399.0,46.5 L403.2,45.1 L407.4,43.4 L411.6,41.7 L415.8,39.9 L420.0,38.0 L424.2,36.1 L428.4,34.3 L432.6,32.6 L436.8,30.9 L441.0,29.5 L445.2,28.3 L449.4,27.3 L453.6,26.6 L457.8,26.1 L462.0,26.0 L466.2,26.1 L470.4,26.6 L474.6,27.3 L478.8,28.3 L483.0,29.5 L487.2,30.9 L491.4,32.6 L495.6,34.3 L499.8,36.1 L504.0,38.0 L840,38" fill="none" stroke="#9be9a8" stroke-width="2.8" stroke-linecap="round" stroke-linejoin="round"><animate attributeName="stroke-dasharray" values="0 1176;1176 0" dur="6s" repeatCount="indefinite"/><animate attributeName="stroke-dashoffset" values="1176;0" dur="6s" repeatCount="indefinite"/></path>
  <text x="420" y="72" fill="#7d8590" font-size="11.5" font-weight="500" font-family="-apple-system, BlinkMacSystemFont, 'Segoe UI', Helvetica, Arial, sans-serif" text-anchor="middle">
    Built with precision by Yeray Lois Sanchez
  </text>
  <text x="420" y="88" fill="#7d8590" font-size="10" font-family="ui-monospace, SFMono-Regular, 'SF Mono', Menlo, Consolas, monospace" text-anchor="middle" opacity="0.7">
    <animate attributeName="opacity" values="0.7;0.3;0.7" dur="3s" repeatCount="indefinite"/>
    Thanks for visiting
  </text>
</svg>
