<svg xmlns="http://www.w3.org/2000/svg" viewBox="0 0 24 24" role="img" aria-label="GNU Bash"><path fill="#4eaa25" d="M21.038 4.9 13.461.402A2.86 2.86 0 0 0 12 0c-.505 0-1.009.134-1.462.403L2.961 4.9A3.03 3.03 0 0 0 1.5 7.503v8.995a3.03 3.03 0 0 0 1.462 2.603l7.577 4.497A2.86 2.86 0 0 0 12 24c.505 0 1.009-.134 1.461-.402l7.577-4.497a3.03 3.03 0 0 0 1.462-2.603V7.503A3.03 3.03 0 0 0 21.038 4.9Zm-5.868 14.046.013.646c.001.078-.05.167-.111.198l-.383.22c-.061.031-.111-.007-.112-.085l-.007-.635c-.328.136-.66.169-.872.084-.04-.016-.057-.075-.041-.142l.139-.584a.3.3 0 0 1 .069-.121.2.2 0 0 1 .036-.026c.022-.011.043-.014.062-.006.229.077.521.041.802-.101.357-.181.596-.545.592-.907-.003-.328-.181-.465-.613-.468-.55.001-1.064-.107-1.072-.917-.007-.667.34-1.361.889-1.8l-.007-.652c-.001-.08.048-.168.111-.2l.37-.236c.061-.031.111.007.112.087l.006.653c.273-.109.511-.138.726-.088.047.012.067.076.048.151l-.144.578a.3.3 0 0 1-.065.116.2.2 0 0 1-.038.028c-.019.01-.038.013-.057.009-.098-.022-.332-.073-.699.113-.385.195-.52.53-.517.778.003.297.155.387.681.396.7.012 1.003.318 1.01 1.023.005.69-.364 1.434-.93 1.889Zm3.973-1.087c0 .06-.008.116-.058.145l-1.916 1.164c-.05.029-.09.004-.09-.056v-.494c0-.06.037-.093.087-.122l1.887-1.129c.05-.029.09-.004.09.056v.436Zm1.316-11.062-7.168 4.427c-.894.523-1.553 1.109-1.553 2.187v8.833c0 .645.26 1.063.66 1.184a2.3 2.3 0 0 1-.398.039c-.42 0-.833-.114-1.197-.33L3.226 18.64a2.5 2.5 0 0 1-1.201-2.142V7.503c0-.881.46-1.702 1.201-2.142L10.803.863A2.3 2.3 0 0 1 12 .533c.419 0 .833.114 1.197.33l7.577 4.498c.624.371 1.046 1.013 1.164 1.732-.252-.536-.818-.682-1.479-.296Z"/></svg>
