<?xml version="1.0" encoding="iso-8859-1"?>
<!-- Uploaded to: SVG Repo, www.svgrepo.com, Generator: SVG Repo Mixer Tools -->
<svg fill="#000000" height="800px" width="800px" version="1.1" id="Layer_1" xmlns="http://www.w3.org/2000/svg" xmlns:xlink="http://www.w3.org/1999/xlink" 
	 viewBox="0 0 512 512" xml:space="preserve">
<g>
	<g>
		<path d="M365.109,44.405c-42.169,0-81.27,17.539-109.109,48.529c-27.839-30.99-66.941-48.529-109.109-48.529
			C65.895,44.405,0,110.3,0,191.296c0,43.071,16.216,84.357,48.196,122.708c26.609,31.909,58.993,56.065,82.64,73.703l3.208,2.394
			c49.059,36.648,53.157,39.031,92.364,61.837c6.895,4.01,14.89,8.661,24.432,14.256c1.593,0.934,3.376,1.401,5.16,1.401
			s3.567-0.467,5.159-1.4c9.542-5.595,17.538-10.246,24.432-14.256c39.207-22.805,43.305-25.189,92.364-61.837l3.208-2.394
			c23.646-17.638,56.031-41.792,82.64-73.703C495.784,275.652,512,234.367,512,191.296C512,110.3,446.105,44.405,365.109,44.405z
			 M368.968,371.356l-3.22,2.402c-48.12,35.945-52.122,38.273-90.412,60.546c-5.632,3.276-11.997,6.978-19.336,11.271
			c-7.339-4.293-13.705-7.995-19.336-11.271c-38.29-22.272-42.292-24.599-90.412-60.546l-3.22-2.402
			c-45.867-34.211-122.635-91.472-122.635-180.06c0-69.748,56.744-126.493,126.493-126.493c40.007,0,76.81,18.333,100.972,50.299
			c1.929,2.55,4.939,4.049,8.137,4.049s6.209-1.499,8.137-4.049c24.162-31.965,60.965-50.299,100.972-50.299
			c69.748,0,126.493,56.744,126.493,126.493C491.602,279.884,414.833,337.145,368.968,371.356z"/>
	</g>
</g>
<g>
	<g>
		<path d="M442.705,129.109c-3.539-4.382-9.962-5.066-14.343-1.526c-4.382,3.54-5.065,9.962-1.526,14.343
			c11.893,14.726,18.18,32.537,18.18,51.51c0,5.633,4.566,10.199,10.199,10.199c5.633,0,10.199-4.566,10.2-10.2
			C465.415,170.085,457.35,147.24,442.705,129.109z"/>
	</g>
</g>
<g>
	<g>
		<path d="M408.998,101.89c-4.188-2.109-8.557-3.944-12.989-5.452c-5.333-1.815-11.127,1.034-12.943,6.367
			c-1.815,5.332,1.035,11.126,6.367,12.943c3.544,1.207,7.038,2.674,10.389,4.361c1.472,0.741,3.036,1.092,4.579,1.092
			c3.731,0,7.325-2.054,9.117-5.615C416.053,110.556,414.03,104.424,408.998,101.89z"/>
	</g>
</g>
</svg>